<svg xmlns="http://www.w3.org/2000/svg" width="1200" height="760" viewBox="0 0 1200 760">
<rect width="1200" height="760" fill="#f8eee9"/><text x="72" y="62" font-family="Georgia" font-weight="700" font-size="22" fill="#4a2635">ELENA MARLOWE</text><text x="844" y="62" font-family="Arial" font-size="12" fill="#4a2635">BOOKS</text><text x="930" y="62" font-family="Arial" font-size="12" fill="#4a2635">ABOUT</text><text x="1020" y="62" font-family="Arial" font-size="12" fill="#4a2635">NEWSLETTER</text><line x1="72" y1="86" x2="1128" y2="86" stroke="#ddc8c1"/>
<text x="74" y="188" font-family="Arial" font-weight="700" font-size="11" letter-spacing="3" fill="#8f3155">A NOVEL ABOUT SECOND CHANCES</text><text x="70" y="286" font-family="Georgia" font-weight="700" font-size="78" fill="#4a2635">Where the</text><text x="70" y="370" font-family="Georgia" font-weight="700" font-size="78" fill="#4a2635">Peonies Wait</text><text x="76" y="426" font-family="Arial" font-size="18" fill="#765564">Some stories begin with a glance. The unforgettable ones begin with a return.</text><rect x="76" y="464" width="168" height="50" fill="#8f3155"/><text x="102" y="495" font-family="Arial" font-size="13" fill="#fff">DISCOVER THE STORY</text>
<rect x="820" y="134" width="230" height="382" fill="#4a2635" transform="rotate(3 935 325)"/><circle cx="935" cy="264" r="74" fill="#8f3155" opacity=".6"/><path d="M855 316 C900 266 970 266 1015 316 C970 296 900 296 855 316Z" fill="none" stroke="#d9a6b8" stroke-width="3"/><text x="935" y="390" text-anchor="middle" font-family="Georgia" font-size="25" fill="#f8eee9">PEONIES</text><text x="935" y="421" text-anchor="middle" font-family="Georgia" font-size="25" fill="#f8eee9">WAIT</text>
<rect x="70" y="588" width="1060" height="120" fill="#f0dfd8"/><text x="104" y="625" font-family="Arial" font-size="10" letter-spacing="2" fill="#8f3155">MEET ELENA</text><text x="104" y="672" font-family="Georgia" font-size="28" fill="#4a2635">Love stories for readers who still believe in the long way home.</text>
</svg>
